# xmcd
#
# Track frame offsets:
#	150
#	23887
#	46084
#	67222
#	84265
#	103807
#	111636
#	133242
#	152033
#	167456
#	189281
#	209731
#	226588
#	246881
#	270136
#	287878
#	303088
#	319924
#	340070
#
# Disc length: 4727 seconds
#
# Revision: 6
# Processed by: cddbd v1.5.2PL0 Copyright (c) Steve Scherf et al.
# Submitted via: EZCDAudioConverter 7.0.6.1
#
DISCID=09127513
DTITLE=Tears For Fears - Raoul and The Kings Of Spain
DYEAR=1995
DGENRE=
TTITLE0=Raoul and The Kings Of Spain
TTITLE1=Falling Down
TTITLE2=Secrets
TTITLE3=God's Mistake
TTITLE4=Sketches Of Pain
TTITLE5=Los Reyes Católicos
TTITLE6=Sorry
TTITLE7=Humdrum And Humble
TTITLE8=I Choose You
TTITLE9=Don't Drink The Water
TTITLE10=Me And My Big Ideas
TTITLE11=Los Reyes Católicos (Reprise)
TTITLE12=All Of The Angels
TTITLE13=The Madness Of Roland
TTITLE14=Queen Of Compromise
TTITLE15=Until I Drown
TTITLE16=War Of Attrition
TTITLE17=Raoul and The Kings Of Spain [Acoustic]
TTITLE18=Break It Down Again [Acoustic]
EXTD=
EXTT0=
EXTT1=
EXTT2=
EXTT3=
EXTT4=
EXTT5=
EXTT6=
EXTT7=
EXTT8=
EXTT9=
EXTT10=
EXTT11=
EXTT12=
EXTT13=
EXTT14=
EXTT15=
EXTT16=
EXTT17=
EXTT18=
PLAYORDER=
